<svg width="680" height="180" viewBox="0 0 680 180" fill="none" xmlns="http://www.w3.org/2000/svg">
  <rect width="680" height="180" rx="38" fill="#05070D"/>
  <rect x="18" y="18" width="144" height="144" rx="32" fill="#071A3D" stroke="#D9B46A" stroke-width="3"/>
  <path d="M52 112V69.5H83.4C91.3 69.5 96.2 73.7 96.2 80.4C96.2 85.1 93.6 88.5 89.4 90.1C95 91.5 98.5 95.3 98.5 100.9C98.5 108.1 93 112 84.8 112H52ZM67.1 86.4H80.3C83.2 86.4 84.9 85 84.9 82.6C84.9 80.2 83.2 78.9 80.3 78.9H67.1V86.4ZM67.1 102.4H81.8C85 102.4 86.8 100.9 86.8 98.3C86.8 95.7 85 94.2 81.8 94.2H67.1V102.4Z" fill="white"/>
  <path d="M101 112V69.5H139.3V80.4H116.6V87.3H136.8V97.7H116.6V112H101Z" fill="white"/>
  <path d="M140 91.1C140 78.1 149.9 68.5 163.4 68.5C171.1 68.5 177.7 71.6 181.8 76.7L172.1 85.4C170 82.5 167.1 80.8 163.2 80.8C156.9 80.8 152.4 85.2 152.4 91.1C152.4 97.3 156.9 101.8 163.3 101.8C166.5 101.8 169 101 171 99.4V95.2H161.1V85.5H183.6V105.2C178.8 110.1 172.1 113 163.2 113C149.7 113 140 103.9 140 91.1Z" fill="#D9B46A" transform="translate(-12 0)"/>
  <text x="200" y="82" fill="white" font-family="Inter, Arial, sans-serif" font-size="44" font-weight="800" letter-spacing="-1.5">BGFS Digital</text>
  <text x="202" y="122" fill="#D9B46A" font-family="Inter, Arial, sans-serif" font-size="20" font-weight="500">Soluções digitais premium</text>
</svg>
